<?xml version="1.0" encoding="utf-8"?>
<!-- Generator: Adobe Illustrator 26.0.2, SVG Export Plug-In . SVG Version: 6.00 Build 0)  -->
<svg version="1.1" id="Layer_1" xmlns="http://www.w3.org/2000/svg" xmlns:xlink="http://www.w3.org/1999/xlink" x="0px" y="0px"
	 viewBox="0 0 328 230" style="enable-background:new 0 0 328 230;" xml:space="preserve">
<style type="text/css">
	.st0{fill:#1DB593;}
	.st1{fill:#FFFFFF;}
	.st2{fill:#005C72;}
	.st3{fill:none;}
	.st4{fill-rule:evenodd;clip-rule:evenodd;fill:#1DB593;}
	.st5{fill-rule:evenodd;clip-rule:evenodd;fill:#FFFFFF;}
</style>
<g>
	<path class="st2" d="M92.9,39.8l-9.6,6l0.1,0l7.3,4l56.8-35.7l-0.1,24.3l-35.2,23.1l7.3,4l35.2-23.2l0.1-41.6L92.9,39.8z"/>
	<path class="st2" d="M234.4,39.8l-0.7-0.4L172.5,0.9l0.1,41.6l35.3,23.2l7.3-4l-35.3-23.2l-0.1-24.3l56.9,35.7l7.3-4l0.1,0
		L234.4,39.8z"/>
	<path class="st0" d="M39,187.4c0,3-1.2,5.8-3.2,8.2c0,0-0.1,0.1-0.1,0.1c-0.4,0.4-0.8,0.8-1.2,1.2l0,0c-3.5,3.2-8.8,5.2-14.7,5.2
		c-10.6,0-19.2-6.6-19.2-14.7c0-8.1,8.6-14.7,19.2-14.7c7.1,0,13.3,2.9,16.6,7.3l-6.6,2.9c-2-2.6-5.7-4.4-10-4.4
		c-6.4,0-11.6,4-11.6,8.9s5.2,8.9,11.6,8.9c4.4,0,8.2-1.9,10.2-4.6H17.4v-4.2H39z"/>
	<polygon class="st0" points="64.9,191.4 64.9,201 57.5,201 57.5,191.4 42.6,173.8 51.4,173.8 61.2,185.4 71,173.8 79.7,173.8 	"/>
	<path class="st0" d="M118.1,182c0,3.8-3.6,7-8.4,8c-0.7,0.2-1.5,0.3-2.3,0.3H93.8V201h-7.4v-27.2H107
		C113.2,173.8,118.1,177.5,118.1,182 M110.7,182c0-1.4-1.5-2.6-3.4-2.6l-13.6,0v5.1l13.6,0C109.2,184.6,110.7,183.5,110.7,182"/>
	<path class="st0" d="M157.3,201h-7.6l-3.2-5.4h-17.9l-3.2,5.4H118l15.9-27.2h7.6L157.3,201z M143.3,190l-5.7-9.7l-5.7,9.7H143.3z"
		/>
	<path class="st0" d="M164,179.5h31.8v-5.7H164V179.5z M164,201h31.8v-5.7H164V201z"/>
	<polygon class="st0" points="237.4,173.8 237.4,179.5 224.6,179.5 224.6,201 217.2,201 217.2,179.5 204.4,179.5 204.4,173.8 	"/>
	<path class="st0" d="M282.2,173.8v14.4c0,3.2-1.4,6.1-3.8,8.5c-1.7,1.7-3.9,3-6.1,3.9c-5.2,2-11.3,2-16.4,0
		c-2.2-0.9-4.4-2.2-6.1-3.9c-2.4-2.3-3.8-5.3-3.8-8.5v-14.4h7.6v14c0.1,2,0.9,3.6,2.2,4.9c4.3,4.2,12.4,4.2,16.7,0
		c1.3-1.3,2.1-2.9,2.2-4.9v-14H282.2z"/>
	<path class="st0" d="M291.9,182c0-1.7,0.7-4.8,6-7.1c3-1.3,7-2.1,11.2-2.1c2,0,4,0.1,5.8,0.4c4.2,0.7,8.2,2.4,11.6,5.1
		c0.4,0.3,0.7,0.6,0.9,0.8l-6.4,3c-0.4-0.3-4.7-3.5-12.2-3.3c-4.6,0.1-9.2,1.2-9.1,3.1c0.1,2.7,8.6,2.5,11.5,2.6
		c12.2,0.6,16.1,4.3,16.3,8.4c0.1,3.9-4.1,8.9-17.1,9.3c-11.3,0.3-18.1-4.6-19.6-6.2l6.4-3c1.8,1.9,7.4,3.3,13.4,3.2
		c5.7-0.2,9.2-1.5,9.1-3.1c0-1.5-1.4-3-11.5-2.9C297.6,190.2,292,186.1,291.9,182"/>
	<rect x="164" y="184.6" class="st4" width="28.1" height="5.7"/>
	<g>
		<g>
			<path class="st2" d="M132.3,225.6c-1.6,2.1-4.6,3.5-8,3.5c-5.1,0-9.2-3.2-9.2-7.1c0-3.9,4.1-7.1,9.2-7.1c3.4,0,6.4,1.4,8,3.5
				l-3.2,1.4c-1-1.3-2.8-2.1-4.8-2.1c-3.1,0-5.6,1.9-5.6,4.3c0,2.4,2.5,4.3,5.6,4.3c2,0,3.8-0.8,4.8-2.1L132.3,225.6z"/>
			<path class="st2" d="M159.3,222c0,3.9-4.1,7.1-9.2,7.1s-9.2-3.2-9.2-7.1c0-3.9,4.1-7.1,9.2-7.1S159.3,218.1,159.3,222z
				 M155.7,222c0-2.4-2.5-4.3-5.6-4.3c-3.1,0-5.6,1.9-5.6,4.3c0,2.4,2.5,4.3,5.6,4.3C153.2,226.3,155.7,224.4,155.7,222z"/>
			<path class="st2" d="M185.7,222c0,3.6-3.8,6.5-8.5,6.5c0,0-8.5,0-8.5,0v-13.1h8.5C181.9,215.5,185.7,218.4,185.7,222z M182.2,222
				c0-2.1-2.2-3.8-5-3.8h-5v7.6h5C180,225.8,182.2,224.1,182.2,222z"/>
			<path class="st2" d="M198.7,218.2v2.4h10v2.7h-10v2.4h11.7v2.7h-15.3v-13.1h15.3v2.7H198.7z"/>
		</g>
	</g>
	<path class="st0" d="M240.1,80.9L181.4,117l0,0l-1.6-14.1l-5.1,18.2l-0.3,0.2l3.9,8.3l-14.5,12.8l-13.9-12.9l2.8-8.1l0.1,0
		l-0.1-0.2l0,0l0,0l0,0l-5.1-18.2L146,117l0,0L87.2,80.9V56.4l25.4,13.9l37.4,20.4l7.1-21.2l16.4,0.2l-4.7,9.3l8.1,12.3l38.1-21
		l25.3-13.9V80.9z M247.7,48.1l-3.6-2.3l-0.1,0l-7.3,4l-21.5,11.8l-7.3,4l-28.7,15.8l-2-3.1l8.2-16.1L151.8,62l-6,18l-26.2-14.3
		l-7.3-4L90.6,49.9l-7.3-4l-0.1,0l-3.6,2.3v36.8l64.2,39.5l-2.6,7.3l22.4,20.7l23.6-20.8l-3.4-7.4l63.9-39.3V48.1z"/>
</g>
</svg>
