<?xml version="1.0" encoding="utf-8"?>
<!-- Generator: Adobe Illustrator 26.0.2, SVG Export Plug-In . SVG Version: 6.00 Build 0)  -->
<svg version="1.1" id="Layer_1" xmlns="http://www.w3.org/2000/svg" xmlns:xlink="http://www.w3.org/1999/xlink" x="0px" y="0px"
	 viewBox="0 0 526 153" style="enable-background:new 0 0 526 153;" xml:space="preserve">
<style type="text/css">
	.st0{fill:#1DB593;}
	.st1{fill:#FFFFFF;}
	.st2{fill:#005C72;}
	.st3{fill:none;}
	.st4{fill-rule:evenodd;clip-rule:evenodd;fill:#1DB593;}
	.st5{fill-rule:evenodd;clip-rule:evenodd;fill:#FFFFFF;}
</style>
<g>
	<g>
		<path class="st2" d="M9.5,56.3L9.5,56.3l25.4,13.9L9.5,56.3z M15.2,39.7l-9.6,6l0.1,0.1l7.3,4l0,0l56.8-35.7l-0.1,24.3L34.6,61.5
			l7.3,4l35.2-23.1l0.1-41.6L15.2,39.7z"/>
		<path class="st2" d="M156.8,39.6l-0.7-0.4L94.8,0.8L95,42.4l35.3,23.2l7.3-4l-35.3-23.2l-0.1-24.3l56.8,35.7l7.3-4l0.1-0.1
			L156.8,39.6z"/>
		<path class="st0" d="M235.5,63.8c0,3-1.2,5.8-3.2,8.2c0,0-0.1,0.1-0.1,0.1c-0.4,0.4-0.8,0.8-1.2,1.2l0,0
			c-3.5,3.2-8.8,5.2-14.7,5.2c-10.6,0-19.2-6.6-19.2-14.7c0-8.1,8.6-14.7,19.2-14.7c7.1,0,13.3,2.9,16.6,7.3l-6.6,2.9
			c-2-2.6-5.7-4.4-10-4.4c-6.4,0-11.6,4-11.6,8.9s5.2,8.9,11.6,8.9c4.4,0,8.2-1.9,10.2-4.6h-12.6v-4.2H235.5z"/>
		<polygon class="st0" points="261.4,67.7 261.4,77.4 254,77.4 254,67.7 239.2,50.2 247.9,50.2 257.7,61.8 267.5,50.2 276.3,50.2 		
			"/>
		<path class="st0" d="M314.7,58.4c0,3.8-3.6,7-8.4,8c-0.7,0.2-1.5,0.3-2.3,0.3h-13.7v10.7h-7.4V50.2h20.6
			C309.7,50.2,314.7,53.9,314.7,58.4 M307.3,58.4c0-1.4-1.5-2.6-3.4-2.6l-13.6,0V61l13.6,0C305.8,61,307.3,59.8,307.3,58.4"/>
		<path class="st0" d="M353.9,77.4h-7.6l-3.2-5.4h-17.9l-3.2,5.4h-7.6l15.9-27.2h7.6L353.9,77.4z M339.9,66.4l-5.7-9.7l-5.7,9.7
			H339.9z"/>
		<path class="st0" d="M360.5,55.9h31.8v-5.7h-31.8V55.9z M360.5,77.4h31.8v-5.7h-31.8V77.4z"/>
		<polygon class="st0" points="433.9,50.2 433.9,55.9 421.1,55.9 421.1,77.4 413.7,77.4 413.7,55.9 400.9,55.9 400.9,50.2 		"/>
		<path class="st0" d="M478.7,50.2v14.4c0,3.2-1.4,6.1-3.8,8.5c-1.7,1.7-3.9,3-6.1,3.9c-5.2,2-11.3,2-16.4,0
			c-2.2-0.9-4.4-2.2-6.1-3.9c-2.4-2.3-3.8-5.3-3.8-8.5V50.2h7.6v14c0.1,2,0.9,3.6,2.2,4.9c4.3,4.2,12.4,4.2,16.7,0
			c1.3-1.3,2.1-2.9,2.2-4.9v-14H478.7z"/>
		<path class="st0" d="M488.5,58.3c0-1.7,0.7-4.8,6-7.1c3-1.3,7-2.1,11.2-2.1c2,0,4,0.1,5.8,0.4c4.2,0.7,8.2,2.4,11.6,5.1
			c0.4,0.3,0.7,0.6,0.9,0.8l-6.4,3c-0.4-0.3-4.7-3.5-12.2-3.3c-4.6,0.1-9.2,1.2-9.1,3.1c0.1,2.7,8.6,2.5,11.5,2.6
			c12.2,0.6,16.1,4.3,16.3,8.4c0.1,3.9-4.1,8.9-17.1,9.3c-11.3,0.3-18.1-4.6-19.6-6.2l6.4-3c1.8,1.9,7.4,3.3,13.4,3.2
			c5.7-0.2,9.2-1.5,9.1-3.1c0-1.5-1.4-3-11.5-2.9C494.1,66.6,488.6,62.4,488.5,58.3"/>
		<rect x="360.5" y="61" class="st4" width="28.1" height="5.7"/>
		<g>
			<g>
				<path class="st2" d="M328.8,102c-1.6,2.1-4.6,3.5-8,3.5c-5.1,0-9.2-3.2-9.2-7.1c0-3.9,4.1-7.1,9.2-7.1c3.4,0,6.4,1.4,8,3.5
					l-3.2,1.4c-1-1.3-2.8-2.1-4.8-2.1c-3.1,0-5.6,1.9-5.6,4.3c0,2.4,2.5,4.3,5.6,4.3c2,0,3.8-0.8,4.8-2.1L328.8,102z"/>
				<path class="st2" d="M355.9,98.4c0,3.9-4.1,7.1-9.2,7.1s-9.2-3.2-9.2-7.1c0-3.9,4.1-7.1,9.2-7.1S355.9,94.5,355.9,98.4z
					 M352.2,98.4c0-2.4-2.5-4.3-5.6-4.3c-3.1,0-5.6,1.9-5.6,4.3c0,2.4,2.5,4.3,5.6,4.3C349.7,102.7,352.2,100.8,352.2,98.4z"/>
				<path class="st2" d="M382.3,98.4c0,3.6-3.8,6.5-8.5,6.5c0,0-8.5,0-8.5,0V91.9h8.5C378.5,91.9,382.3,94.8,382.3,98.4z
					 M378.7,98.4c0-2.1-2.2-3.8-5-3.8h-5v7.6h5C376.5,102.2,378.7,100.5,378.7,98.4z"/>
				<path class="st2" d="M395.2,94.6v2.4h10v2.7h-10v2.4h11.7v2.7h-15.3V91.9h15.3v2.7H395.2z"/>
			</g>
		</g>
		<path class="st0" d="M162.5,80.8l-58.8,36.2l0,0l-1.6-14.1L97,121l-0.3,0.2l3.9,8.3l-14.5,12.8l-13.9-12.9l2.8-8.1l0.1,0l-0.1-0.2
			l0,0l0,0l0,0l-5.1-18.2l-1.6,14.1l0,0L9.5,80.8V56.3l25.4,13.9l37.4,20.4l7.1-21.2l16.4,0.2L91,78.8l8.1,12.3l38.1-21l25.3-13.9
			V80.8z M170,48l-3.6-2.3l-0.1,0l-7.3,4l-21.5,11.8l-7.3,4l-28.7,15.8l-2-3.1l8.2-16.1l-33.6-0.4l-6,18L41.9,65.6l-7.3-4L13,49.8
			l-7.3-4l-0.1,0L2,48v36.8l64.2,39.5l-2.6,7.3L86,152.2l23.6-20.8l-3.4-7.4L170,84.8V48z"/>
	</g>
</g>
</svg>
